# xmcd CD database file
#
# Track frame offsets:
#	187
#	10530
#	28392
#	42557
#	50260
#	69157
#	79667
#	93605
#	101832
#	119617
#
# Disc length: 1830 seconds
#
# Revision: 1
# Processed by: cddbd v1.4PL0 Copyright (c) Steve Scherf et al.
# Submitted via: CDex 1.50
#
DISCID=8007240a
DTITLE=Statesmen - Revival
DYEAR=1992
DGENRE=Gospel
TTITLE0=Goodbye World Goodbye
TTITLE1=Death Ain't No Big Deal
TTITLE2=Come Out With Your Hands Up
TTITLE3=Someday
TTITLE4=I Lost It All To Find Everything
TTITLE5=Glory Train
TTITLE6=Sinners Plea
TTITLE7=If The Lord Wasn't Walking By My Side
TTITLE8=Every Eye Shall See
TTITLE9=I've Been There
EXTD=YEAR: 1992
EXTT0=
EXTT1=
EXTT2=
EXTT3=
EXTT4=
EXTT5=
EXTT6=
EXTT7=
EXTT8=
EXTT9=
PLAYORDER=
